<?xml version="1.0" encoding="UTF-8" standalone="no"?>
<svg
   id="Layer_1"
   data-name="Layer 1"
   viewBox="0 0 1109 696.00001"
   version="1.1"
   sodipodi:docname="label-template.svg"
   width="1109"
   height="696"
   inkscape:version="1.2 (dc2aedaf03, 2022-05-15)"
   xml:space="preserve"
   xmlns:inkscape="http://www.inkscape.org/namespaces/inkscape"
   xmlns:sodipodi="http://sodipodi.sourceforge.net/DTD/sodipodi-0.dtd"
   xmlns="http://www.w3.org/2000/svg"
   xmlns:svg="http://www.w3.org/2000/svg"><sodipodi:namedview
     id="namedview85"
     pagecolor="#ffffff"
     bordercolor="#000000"
     borderopacity="0.25"
     inkscape:showpageshadow="2"
     inkscape:pageopacity="0.0"
     inkscape:pagecheckerboard="0"
     inkscape:deskcolor="#d1d1d1"
     showgrid="false"
     inkscape:zoom="0.93203837"
     inkscape:cx="442.57835"
     inkscape:cy="279.49493"
     inkscape:window-width="1920"
     inkscape:window-height="1001"
     inkscape:window-x="-9"
     inkscape:window-y="-9"
     inkscape:window-maximized="1"
     inkscape:current-layer="Layer_1" /><defs
     id="defs50"><style
       id="style48">.cls-1{fill:#221e20;}.cls-2{font-size:60px;font-family:Raleway-Bold, Raleway;}.cls-2,.cls-4{font-weight:700;}.cls-3{font-size:36px;font-family:TrebuchetMS, Trebuchet MS;}.cls-4{font-size:21px;fill:#fff;font-family:TrebuchetMS-Bold, Trebuchet MS;}.cls-5{letter-spacing:-0.02em;}</style></defs><rect
     x="808.38794"
     y="413.59909"
     width="223.03"
     height="261.29999"
     rx="28.200001"
     id="rect52" /><path
     class="cls-1"
     d="m 581.91796,493.6891 a 72.57,72.57 0 0 0 22.27,52.08 3.25,3.25 0 0 1 0.63,1.95 3.91,3.91 0 0 0 -0.33,2 c 0.07,0.94 1.53,1.18 1.44,2.11 0,0.07 0,0.13 0,0.2 0,0.83 3.77,1.78 3.93,4.05 0.07,0.92 0.69,0.8 1.67,1 0.98,0.2 0.81,1.69 0.91,3.1 0.24,3.35 4.09,3.55 6.41,4.88 1.91,0.39 1.08,2 3.13,1.73 3.51,-0.45 3.06,1.25 5.82,1.94 1,0.24 1.71,0.55 2.6,0.82 a 4,4 0 0 0 4.48,2.54 c 1.57,-0.16 2.45,-1.1 4.23,-0.76 1.78,0.34 2.94,1.71 4.23,2.53 a 7.86,7.86 0 0 1 2.91,2.66 10.06,10.06 0 0 1 0.81,1.9 c 1,3 1.1,6.59 3.84,8.68 0.86,3.3 -1.73,0.87 -2.9,0.44 a 2,2 0 0 0 -0.94,-0.08 7.69,7.69 0 0 1 -1.78,0.27 c -0.83,-0.1 -2.59,-1.84 -3.21,-2.66 -0.42,-0.57 -0.38,-1.24 -0.66,-1.83 a 3.21,3.21 0 0 0 -3,-1.78 c -2.25,0.36 -7,1.18 -5.44,4.69 a 4.25,4.25 0 0 0 1,1.08 c 1.72,1.22 3.53,2.41 4.11,4.94 -2.41,0.44 -3.06,-3.41 -5.68,-2.92 -1.81,0.34 -4.64,1.24 -5,3 -0.45,2 1.62,3.34 3.08,3.86 2.53,0.9 6.17,0.7 8.83,1.21 0,1.28 0.53,2.86 1.45,3.29 1.71,0.8 3.33,-0.63 4.36,-1.33 a 15.78,15.78 0 0 1 2,-0.1 9.88,9.88 0 0 1 6.81,2.51 c 1.13,1 2,2.6 3.14,3.29 a 20,20 0 0 1 2.9,1.52 1.32,1.32 0 0 1 0.23,0.24 c 0.85,1.06 1.23,3.74 1.35,5.14 a 10.89,10.89 0 0 1 -1.35,6.6 4.84,4.84 0 0 1 -1,1.13 c -0.83,0.65 -2,0.55 -3.09,1.08 -1.09,0.53 -2.45,1.32 -2.35,2.91 a 9.59,9.59 0 0 0 0.42,1.33 c 0.26,1.91 -1.27,3.32 -1.82,4.43 a 25.85,25.85 0 0 1 -0.18,4.88 c -0.27,1.14 -2.18,1.8 -2.23,3.11 a 19.3,19.3 0 0 1 -2.82,-1.13 5.31,5.31 0 0 1 -3.17,-4.07 c -0.09,-0.71 0.2,-1.55 0.06,-2.34 -0.14,-0.79 -1.37,-2.74 -2.06,-2.92 -1.22,-0.32 -2,0.14 -2.72,-0.63 -1.25,-1.41 -0.69,-3.63 -2.06,-4.69 -1.82,-1.4 -3.94,1 -4.53,2.66 -0.51,1.85 1.93,2.89 1.69,4.5 -0.31,2.07 -2.93,-0.35 -4.72,-0.19 a 2.83,2.83 0 0 0 -2.36,2.09 c -0.17,1.27 1.49,3 2.12,3.42 a 14.2,14.2 0 0 0 4.17,1.9 4.35,4.35 0 0 0 2.12,-0.12 c 2.18,-0.28 3.46,0.95 4.48,2.28 1.34,2.92 4.65,3.81 7,5.7 a 8.29,8.29 0 0 1 0.7,0.63 c 0.6,0.66 0,1 0,2.07 0.09,1.35 -1,0.65 -1.68,2.25 a 6.42,6.42 0 0 1 -0.41,1.13 c -0.28,0.46 -0.28,0.34 -0.36,0.88 a 1.09,1.09 0 0 1 -1.13,1 1.07,1.07 0 0 1 -1,-1.13 c 0.11,-0.75 1.22,-2.21 0.68,-3 -0.07,-0.11 -1.38,-0.39 -1.85,0 -0.82,0.76 -0.41,1.49 -0.59,2.65 a 9.68,9.68 0 0 0 -0.25,3.58 c 0.13,1.36 -1.69,1 -1.81,-0.36 -0.16,-1.67 -0.44,-0.89 -0.18,-2.55 0.26,-1.66 0.82,-3.45 0.21,-4.48 a 1.26,1.26 0 0 0 -1.06,-0.4 2.09,2.09 0 0 0 -1.27,0.63 c -0.68,0.81 -0.14,2.49 0,3.34 0.14,0.85 -0.31,2.42 -1.21,1.69 -1.64,-1.32 0.43,-2.88 -1.27,-4 a 1.19,1.19 0 0 0 -1.1,-0.07 c -0.4,0.15 -1,0.11 -1.19,0.49 -0.63,1.47 0.65,3.16 1.46,4.58 a 15.19,15.19 0 0 1 2,4.21 c 0.47,1.28 -1,1.61 -1.44,0.31 -0.72,-2 -1.35,-1.77 -2.46,-3.52 -0.9,-1.42 0,-4 -1.51,-4.68 a 1.8,1.8 0 0 0 -2.54,1.67 c 0,2 1.83,3.78 2.9,5.25 0.19,0.25 1.77,2.52 0,2.87 -1.2,0.24 -2.28,-1.58 -3.21,-4 -0.3,-0.77 -0.68,-1.81 -1.42,-2 -0.74,-0.19 -1.58,0.7 -1.44,1.55 0.06,0.36 0.55,0.45 0.78,0.78 0.38,0.53 -0.31,1.31 0.33,1.56 1.29,0.49 1.33,2.54 0,2 a 3.93,3.93 0 0 1 -1.91,-1.67 c -0.28,-0.41 -0.5,-1.43 -1,-1.54 -0.5,-0.11 -1.07,0.12 -0.92,0.78 0.15,0.66 -1.34,1.24 -1,2 0.58,1.28 2.65,1.17 3.47,2.19 0.82,1.02 -0.72,2.54 -1.58,1.46 -0.64,-0.8 -1.74,-2.15 -2.65,-1.62 a 1.78,1.78 0 0 0 -0.49,2.26 c 0.15,0.22 0.53,0.1 0.79,0.19 a 1.08,1.08 0 0 1 0.69,1.35 c -0.18,0.56 -1.63,1 -1.77,1.16 a 1.09,1.09 0 0 0 -0.06,1.6 c 1.92,1.79 3.18,-1.61 5.83,-1.88 2.44,-0.25 2.6,-0.16 3.36,0.43 1.09,0.85 1.54,1.69 0.17,1.86 -1.37,0.17 -2.09,-0.29 -3.39,-0.16 -1.5,0.15 -1.33,0.52 -2.69,1.11 -1.36,0.59 -3.23,-0.32 -3.67,1.68 a 2.22,2.22 0 0 0 0.73,2.17 c 0.94,0.78 1.56,0.26 2.64,-0.31 1.4,-0.74 1.68,-0.93 3.23,-0.5 1.55,0.43 1.28,1.42 -0.1,1.39 -1.74,0 -0.74,0.44 -2.23,1.18 -0.93,0.45 -2.54,-0.53 -2.87,0.8 -0.22,0.86 -0.54,2.11 0.3,2.41 0.4,0.14 0.7,-0.49 1,-0.76 1.08,-0.86 2.53,0.72 1.45,1.58 -0.56,0.44 -1.5,0.55 -1.71,1.21 a 1,1 0 0 0 0.62,1.23 0.94,0.94 0 0 0 0.9,-0.17 c 1.44,-1.12 1.17,-1.24 1.32,-1.42 0.86,-1 0.79,-0.64 2,-1.34 1.21,-0.7 1.65,1.2 0.46,1.9 -1.19,0.7 -0.86,0.71 -1.86,1.68 -0.63,0.61 -1.24,0.09 -1.59,1.55 -0.1,0.43 0.48,0.75 0.74,1.11 a 1.93,1.93 0 0 0 1.29,0.8 c 1.7,0.32 1.79,-1.11 2.83,-2.42 1.35,-1.72 1,-1.35 3.18,-1.88 1.35,-0.32 1.6,1.35 0.26,1.68 -2.26,0.54 -1.46,1.2 -2.87,2.87 -0.85,1 -1.93,0.66 -2.21,2 -0.21,1 1.14,2.4 2.15,2.11 1.01,-0.29 0.13,-0.94 0.86,-1.51 a 1.08,1.08 0 0 1 1.59,1.4 c -0.21,0.39 -0.43,0.7 -0.28,1.1 0.15,0.4 2.28,0.21 2.45,0.11 a 1.35,1.35 0 0 0 0.65,-1.55 19.09,19.09 0 0 1 -0.35,-2.14 c -0.26,-1.36 1.57,-2.55 1.83,-1.19 0.18,1 0.25,0.34 0.34,1.31 0.09,0.97 2,0.55 0.48,2.71 a 1,1 0 0 0 -0.06,1.16 c 0.55,0.6 1.73,-0.08 2.3,-0.61 1.88,-1.75 -1.72,-4.15 0.59,-5.1 0.91,-0.38 0.57,0.8 1.24,2 1,1.77 1.1,1.85 1,4 0,1.24 -1.81,2 -2.41,3.64 -0.42,1.16 -0.43,4.18 0.9,4.31 a 40.06,40.06 0 0 0 7.29,-0.29 39.11,39.11 0 0 1 7.05,-0.22 c 1.47,0.14 3.49,0.53 5.37,0.59 2.7,0.08 5.12,-0.5 5.21,-3.43 0,-1.45 -0.83,-2.59 -0.78,-3.68 a 31.59,31.59 0 0 1 0.9,-3 c 0.5,-2.33 1.28,-4.71 1,-7.85 1.53,-1.6 4.11,-3.19 3.5,-6.73 -0.38,-2.18 -0.73,-3.66 -3.2,-3.85 -1.32,-3.59 0.21,-6.5 1.15,-9.18 0.51,-1.45 1.81,-2.28 1.39,-4.18 -0.19,-0.9 -0.67,-1.42 -0.6,-2.54 0.13,-2.28 2.15,-4.56 3.08,-6.39 0.61,-1.19 1.7,-2.33 2.36,-3.42 0.78,-1.29 0.7,-2.51 1.21,-4.37 0.85,-3.09 4.6,-3.31 6.05,-5.52 0.53,-0.8 0.63,-2.28 1.21,-3.42 0.84,-1.66 2,-3.63 3.69,-4.56 1.61,0.67 3.48,-0.53 4.11,-1.71 0.38,-0.7 0.2,-1.7 0.49,-2.47 0.29,-0.77 1.36,-1.41 1.39,-2.66 a 3.28,3.28 0 0 0 -1,-2.47 c -0.94,-0.53 -3.83,0 -4.48,-0.95 a 6.45,6.45 0 0 1 -0.6,-3.92 c 0.11,-1 0.76,-1.81 0.6,-2.79 -0.16,-0.98 -1.3,-1.81 -1.27,-3 0.03,-1.19 2.24,-2.43 2.48,-4 0.22,-1.36 -0.47,-2.63 -0.54,-3.92 -0.06,-1 1.08,-2 1.51,-3 1.21,-2.62 4,-4.27 4.36,-7.54 0.21,-1.81 -0.58,-3.26 -0.37,-4.81 0.21,-1.55 1.58,-2.6 1.39,-4.44 -0.27,-2.7 -5.94,-2.52 -6.47,0.07 -0.29,1.42 0.24,2.58 -0.12,4.18 -1,-0.78 -2.22,-1.54 -3.26,-2.34 -1.04,-0.8 -0.48,-2.52 -1.27,-3.8 -1.5,-2.43 -6.24,-0.69 -6.42,1.58 -0.23,3.06 2.23,3.86 3.75,5.26 -0.14,2.58 3.57,3.79 3.87,5.51 a 7.48,7.48 0 0 1 -0.24,2 c -0.14,1 -1,1.33 -1.39,2 -1.13,-0.53 -0.89,-2.49 -1.81,-3.23 a 2.61,2.61 0 0 0 -2.91,-0.07 4.23,4.23 0 0 0 -0.24,0.76 c -0.7,-0.22 -0.65,-1 -1,-1.71 -0.54,-1.17 -1.93,-1.62 -2.9,-2.66 -1.12,-1.21 -1.15,-3.7 -1.51,-5.89 a 8.94,8.94 0 0 1 -0.36,-2.47 c 0.2,-1.19 1.82,-2.65 2.66,-3.55 2.16,-2.29 6.63,-4.11 7.44,-7.6 0.23,-1 0,-1.85 0.42,-2.47 a 17.46,17.46 0 0 1 2.48,-2 14,14 0 0 1 3.63,-2.22 c 0.45,-0.21 1,-0.79 1.45,-0.89 1.47,-0.32 2.72,0 3.87,-0.5 0.61,-0.29 1,-0.76 1.63,-0.89 1.63,-0.33 2.42,-0.3 3.45,-1.2 2.18,-1.91 2.53,-5.4 5.81,-6.08 a 15.79,15.79 0 0 1 2.48,0 c 3,-0.2 4,-3.26 6.29,-4.12 0.73,-1.07 1.63,-2.5 1,-4.18 -0.27,-0.66 -1,-0.93 -0.67,-1.9 0.33,-0.97 2,-1.58 2.54,-2.6 0.12,-0.25 0.17,-0.62 0.3,-0.88 0.84,-1.68 2.86,-1.88 3.51,-3.55 0.81,-2.69 0.4,-6.51 1.13,-9.58 0.86,-3.62 4.39,-7.45 5,-11.07 1.27,-7 -0.06,-13.05 -0.05,-18.87 a 71.73,71.73 0 0 0 -65.63,-71.46 v -566 h -12.52 a 0.63,0.63 0 0 0 -0.62,0.63 v 565.28 h 0.55 a 71.78,71.78 0 0 0 -65.7,71.47 z m 13,0 c 0,-32.39 26.62,-59.74 58.81,-59.74 32.57,0 59.37,27.35 59.37,59.74 0,32.39 -26.8,60.11 -59.37,60.11 -32.16,0 -58.78,-27.73 -58.78,-60.11 z"
     id="path54" /><path
     class="cls-1"
     d="m 667.00796,488.8391 c -7.44,0 -17.68,-9.86 -27.91,-9.86 -9.5,0 -17.31,6.52 -24.2,21.41 l 13,8.56 c 5.22,-6.89 9.49,-10.42 14.28,-10.21 5.82,0 15.31,10 26.29,10 11.36,0 18.61,-8.19 25.68,-21.78 l -12.81,-8.51 c -5.58,8.16 -9.86,10.39 -14.33,10.39 z"
     id="path56" /><text
     xml:space="preserve"
     style="font-style:normal;font-variant:normal;font-weight:bold;font-stretch:normal;font-size:64px;font-family:Raleway;-inkscape-font-specification:'Raleway Bold';fill:#000000"
     x="68.578445"
     y="120.16673"
     id="text315"><tspan
       sodipodi:role="line"
       id="tspan313"
       x="68.578445"
       y="120.16673">[SwitchName]</tspan></text><text
     xml:space="preserve"
     style="font-style:normal;font-variant:normal;font-weight:normal;font-stretch:normal;font-size:32px;font-family:'Trebuchet MS';-inkscape-font-specification:'Trebuchet MS';fill:#000000"
     x="73.763931"
     y="189.90634"
     id="text443"><tspan
       sodipodi:role="line"
       id="tspan441"
       x="73.763931"
       y="189.90634">Model: [SwitchModel]</tspan><tspan
       sodipodi:role="line"
       x="73.763931"
       y="229.90634"
       id="tspan445">Serial: [SwitchSerial]</tspan><tspan
       sodipodi:role="line"
       x="73.763931"
       y="269.90634"
       id="tspan447">Asset Tag: [SwitchAsset]</tspan></text><text
     xml:space="preserve"
     style="font-style:normal;font-variant:normal;font-weight:normal;font-stretch:normal;font-size:32px;font-family:'Trebuchet MS';-inkscape-font-specification:'Trebuchet MS';fill:#000000"
     x="801.78436"
     y="99.411522"
     id="text443-84"><tspan
       sodipodi:role="line"
       x="801.78436"
       y="99.411522"
       id="tspan447-1">Private Ports:</tspan><tspan
       sodipodi:role="line"
       x="801.78436"
       y="139.41153"
       id="tspan721" /><tspan
       sodipodi:role="line"
       x="801.78436"
       y="179.41153"
       id="tspan723">[Ports]</tspan></text><text
     xml:space="preserve"
     style="font-style:normal;font-variant:normal;font-weight:normal;font-stretch:normal;font-size:26.6667px;font-family:'Trebuchet MS';-inkscape-font-specification:'Trebuchet MS';fill:#ffffff;fill-opacity:1"
     x="835.41718"
     y="449.98984"
     id="text443-84-4"><tspan
       sodipodi:role="line"
       x="835.41718"
       y="449.98984"
       id="tspan723-6"
       style="font-style:normal;font-variant:normal;font-weight:bold;font-stretch:normal;font-size:26.6667px;font-family:'Trebuchet MS';-inkscape-font-specification:'Trebuchet MS Bold';fill:#ffffff;fill-opacity:1">DO NOT SCAN</tspan></text><text
     xml:space="preserve"
     style="font-style:normal;font-variant:normal;font-weight:normal;font-stretch:normal;font-size:32px;font-family:'Trebuchet MS';-inkscape-font-specification:'Trebuchet MS';fill:#000000"
     x="72.576431"
     y="352.73718"
     id="text443-8"><tspan
       sodipodi:role="line"
       x="72.576431"
       y="352.73718"
       id="tspan601">Public Ports: [CamperPorts]</tspan><tspan
       sodipodi:role="line"
       x="72.576431"
       y="392.73718"
       id="tspan415">IPv4: [CamperIPv4]</tspan><tspan
       sodipodi:role="line"
       x="72.576431"
       y="432.73718"
       id="tspan447-4">IPv6: [CamperIPv6]</tspan><tspan
       sodipodi:role="line"
       x="72.576431"
       y="472.73718"
       id="tspan419">VLAN: [CamperVLAN]</tspan><tspan
       sodipodi:role="line"
       x="72.576431"
       y="512.73718"
       id="tspan421" /></text><text
     xml:space="preserve"
     style="font-style:normal;font-variant:normal;font-weight:normal;font-stretch:normal;font-size:32px;font-family:'Trebuchet MS';-inkscape-font-specification:'Trebuchet MS';fill:#000000"
     x="70.670181"
     y="542.9873"
     id="text443-8-6"><tspan
       sodipodi:role="line"
       x="70.670181"
       y="542.9873"
       id="tspan447-4-7">[Links]</tspan></text><g
     id="qr_code"
     transform="translate(827.21916,469.93773)"><rect
       style="fill:#ffffff;fill-opacity:1"
       id="rect53"
       width="184.54176"
       height="184.54176"
       x="0"
       y="0" /></g></svg>
